<svg width="30" height="20" viewBox="0 0 30 20" fill="none" xmlns="http://www.w3.org/2000/svg">
<path d="M29.2408 0V11.4088C29.2408 14.0976 28.5054 16.151 27.0345 17.569C25.5636 18.9687 23.4783 19.6685 20.7786 19.6685C19.438 19.6685 18.2371 19.4751 17.1758 19.0884C16.1332 18.7016 15.2767 18.1584 14.6064 17.4585C13.9176 18.1584 13.0518 18.7016 12.0091 19.0884C10.9665 19.4751 9.78418 19.6685 8.46225 19.6685C5.76252 19.6685 3.67721 18.9687 2.20633 17.569C0.735444 16.151 0 14.0976 0 11.4088V0H4.52437V11.2707C4.52437 12.8361 4.8502 13.9963 5.50185 14.7514C6.15351 15.488 7.12169 15.8563 8.40639 15.8563C11.0316 15.8563 12.3443 14.3278 12.3443 11.2707V0H16.8686V11.2707C16.8686 14.3278 18.1906 15.8563 20.8344 15.8563C23.4038 15.8563 24.6885 14.3278 24.6885 11.2707V0H29.2408Z" fill="#292E39"/>
</svg>
